<svg width="24" height="24" viewBox="0 0 24 24" fill="none" xmlns="http://www.w3.org/2000/svg">
<path d="M24 12.0464C24 11.658 23.6852 11.3433 23.2969 11.3433H7.26544V9.70282H8.20276C8.59112 9.70282 8.90588 9.38788 8.90588 8.99969V4.453C9.20911 4.453 9.47827 4.25854 9.57349 3.9707C9.6687 3.68286 9.56854 3.36627 9.32519 3.18555L5.22381 0.138672C4.97479 -0.0460815 4.63421 -0.0460815 4.38519 0.138672L0.28381 3.18555C0.0404629 3.36627 -0.0595126 3.68286 0.0355191 3.9707C0.130917 4.25854 0.399899 4.453 0.703122 4.453V8.99969C0.703122 9.38788 1.01788 9.70282 1.40625 9.70282H2.30456V23.296C2.30456 23.6842 2.6195 23.999 3.00769 23.999H23.296C23.6841 23.999 23.9989 23.6842 23.9989 23.296V14.8788C23.9993 14.8721 24 14.8655 24 14.8589V12.0464ZM4.8045 1.57898L6.78039 3.04675H2.82879L4.8045 1.57898ZM2.10937 4.453H7.49982V8.29657H2.10937V4.453ZM11.7323 14.1558H9.29443L10.5132 13.0278L11.7323 14.1558ZM12.2831 12.7495H14.7074L13.4954 13.8712L12.2831 12.7495ZM16.4769 13.0278L17.696 14.1558H15.2582L16.4769 13.0278ZM18.2468 12.7495H20.671L19.459 13.8712L18.2468 12.7495ZM22.5938 12.8859V14.1558H21.2217L22.5938 12.8859ZM8.74365 12.7495L7.26526 14.1177V12.7495H8.74365ZM3.71081 9.84344H5.85919V22.5929H3.71081V9.84344ZM22.5928 22.5929H7.26544V15.5618H22.5928V22.5929Z" fill="white"/>
</svg>
