<svg width="368" height="24" viewBox="0 0 368 24" fill="none" xmlns="http://www.w3.org/2000/svg">
<path fill-rule="evenodd" clip-rule="evenodd" d="M0 12L142 11V13L0 12Z" fill="white"/>
<path fill-rule="evenodd" clip-rule="evenodd" d="M368 12L226 11V13L368 12Z" fill="white"/>
<path d="M186.644 9.35461C186.359 9.06863 186.044 8.81513 185.704 8.59875C184.802 8.02159 183.755 7.71489 182.684 7.71489C181.199 7.71213 179.774 8.30237 178.725 9.35461L173.638 14.4457C172.591 15.4945 172.003 16.9155 172.002 18.3974C172 21.4896 174.505 23.998 177.597 23.9999C179.08 24.0051 180.504 23.4177 181.553 22.3682L185.752 18.169C185.828 18.0933 185.871 17.9901 185.87 17.8827C185.869 17.6618 185.689 17.4838 185.468 17.4851H185.308C184.431 17.4882 183.561 17.3197 182.748 16.9892C182.599 16.9276 182.427 16.9624 182.312 17.0772L179.293 20.1006C178.355 21.0383 176.835 21.0383 175.898 20.1006C174.96 19.163 174.96 17.6429 175.898 16.7053L181.005 11.6022C181.942 10.6665 183.459 10.6665 184.396 11.6022C185.027 12.1964 186.012 12.1964 186.644 11.6022C186.915 11.3303 187.08 10.9697 187.108 10.5864C187.137 10.1282 186.968 9.67959 186.644 9.35461Z" fill="white"/>
<path d="M194.358 1.64C192.172 -0.546652 188.626 -0.546652 186.44 1.64L182.244 5.83123C182.129 5.94699 182.096 6.1211 182.16 6.27117C182.224 6.42166 182.373 6.51825 182.536 6.51511H182.684C183.561 6.51352 184.429 6.68332 185.24 7.01504C185.39 7.07667 185.562 7.04189 185.676 6.92707L188.687 3.91959C189.625 2.98198 191.145 2.98198 192.083 3.91959C193.02 4.85721 193.02 6.37737 192.083 7.31498L188.331 11.0623L188.299 11.0983L186.987 12.4021C186.051 13.3378 184.533 13.3378 183.596 12.4021C182.965 11.8078 181.98 11.8078 181.348 12.4021C181.075 12.676 180.91 13.0397 180.885 13.4259C180.855 13.884 181.024 14.3326 181.348 14.6577C181.811 15.1225 182.353 15.5016 182.948 15.7774C183.032 15.8174 183.116 15.8494 183.2 15.8854C183.284 15.9214 183.372 15.9494 183.456 15.9814C183.54 16.0134 183.628 16.0414 183.712 16.0654L183.948 16.1294C184.108 16.1693 184.268 16.2014 184.432 16.2293C184.629 16.2587 184.828 16.2774 185.028 16.2853H185.308H185.332L185.572 16.2574C185.66 16.2534 185.752 16.2334 185.856 16.2334H185.992L186.268 16.1934L186.396 16.1694L186.627 16.1214H186.671C187.654 15.8747 188.551 15.366 189.267 14.6497L194.358 9.55858C196.545 7.37193 196.545 3.82666 194.358 1.64Z" fill="white"/>
</svg>
