<svg width="140" height="140" viewBox="0 0 140 140" fill="none" xmlns="http://www.w3.org/2000/svg">
<path d="M73.3042 66.6933C72.9488 66.3358 72.5548 66.0189 72.1294 65.7484C71.0027 65.027 69.6929 64.6436 68.3551 64.6436C66.4982 64.6402 64.7167 65.378 63.406 66.6933L57.0471 73.0571C55.7386 74.3681 55.0031 76.1444 55.002 77.9967C54.9995 81.862 58.1309 84.9975 61.9962 84.9999C63.8503 85.0064 65.6301 84.2721 66.9403 82.9603L72.1894 77.7112C72.2848 77.6167 72.338 77.4877 72.3373 77.3534C72.3357 77.0773 72.1105 76.8548 71.8344 76.8564H71.6345C70.5378 76.8603 69.4509 76.6497 68.4351 76.2365C68.2479 76.1595 68.0328 76.203 67.8902 76.3465L64.1159 80.1258C62.9439 81.2978 61.0436 81.2978 59.8716 80.1258C58.6996 78.9538 58.6996 77.0536 59.8716 75.8816L66.2555 69.5027C67.4266 68.3331 69.3237 68.3331 70.4948 69.5027C71.284 70.2455 72.5151 70.2455 73.3042 69.5027C73.6438 69.1629 73.8496 68.7122 73.8842 68.233C73.9207 67.6603 73.7095 67.0995 73.3042 66.6933Z" fill="white"/>
<path d="M82.9477 57.05C80.2144 54.3167 75.7828 54.3167 73.0495 57.05L67.8054 62.289C67.6614 62.4337 67.6199 62.6514 67.7004 62.839C67.7801 63.0271 67.9661 63.1478 68.1703 63.1439H68.3553C69.4507 63.1419 70.5358 63.3541 71.5497 63.7688C71.7369 63.8458 71.952 63.8024 72.0946 63.6588L75.8589 59.8995C77.0309 58.7275 78.9311 58.7275 80.1031 59.8995C81.2752 61.0715 81.2752 62.9717 80.1031 64.1437L75.414 68.8279L75.374 68.8729L73.7343 70.5026C72.5632 71.6722 70.6661 71.6722 69.495 70.5026C68.7058 69.7598 67.4747 69.7598 66.6855 70.5026C66.3438 70.845 66.1378 71.2997 66.1056 71.7823C66.0691 72.355 66.2803 72.9158 66.6855 73.3221C67.2642 73.9032 67.9412 74.377 68.6852 74.7218C68.7901 74.7718 68.8951 74.8118 69.0001 74.8568C69.1051 74.9018 69.215 74.9368 69.32 74.9768C69.425 75.0168 69.535 75.0518 69.64 75.0817L69.9349 75.1617C70.1349 75.2117 70.3349 75.2517 70.5398 75.2867C70.7867 75.3233 71.0353 75.3467 71.2847 75.3567H71.6346H71.6646L71.9645 75.3217C72.0745 75.3167 72.1895 75.2917 72.3195 75.2917H72.4894L72.8344 75.2417L72.9944 75.2117L73.2843 75.1518H73.3393C74.5673 74.8433 75.6885 74.2075 76.5837 73.3121L82.9475 66.9482C85.681 64.2149 85.681 59.7833 82.9477 57.05Z" fill="white"/>
<path d="M62.4815 135.187L62.6659 130.667L63.3853 130.696L63.6295 131.775C64.3515 130.956 65.288 130.569 66.439 130.616C67.654 130.666 68.6208 131.11 69.3392 131.948C70.0493 132.793 70.3777 133.872 70.3242 135.182C70.2711 136.485 69.8594 137.549 69.0892 138.375C68.3109 139.2 67.2783 139.586 65.9914 139.534C65.3999 139.509 64.8526 139.383 64.3495 139.154C63.846 138.934 63.4234 138.596 63.0817 138.142C62.7396 137.696 62.5566 137.176 62.5327 136.582L63.6358 136.627C63.7009 137.19 63.9545 137.649 64.3964 138.003C64.83 138.365 65.3745 138.56 66.03 138.586C66.9572 138.624 67.7057 138.334 68.2753 137.717C68.8446 137.108 69.1514 136.26 69.1957 135.172C69.2394 134.101 69.0023 133.239 68.4845 132.585C67.9667 131.932 67.2482 131.586 66.329 131.549C65.4657 131.513 64.7996 131.747 64.3308 132.248C63.8537 132.757 63.5855 133.442 63.5264 134.305L66.2601 134.416L66.2224 135.339L62.4815 135.187Z" fill="white"/>
<path d="M58.586 138.546L57.4682 138.322L58.5264 133.039C58.6898 132.224 58.6327 131.592 58.3551 131.145C58.0776 130.698 57.5387 130.394 56.7386 130.234C55.915 130.069 55.296 130.144 54.8817 130.461C54.4596 130.776 54.1684 131.334 54.0082 132.134L52.95 137.417L51.8322 137.193L52.8315 132.205C53.0766 130.981 53.5122 130.13 54.1383 129.651C54.7629 129.181 55.6909 129.069 56.9225 129.316C58.1148 129.555 58.9218 130.006 59.3437 130.67C59.7561 131.34 59.8445 132.263 59.6089 133.44L58.586 138.546Z" fill="white"/>
<path d="M45.5298 126.997L45.8564 126.069L51.1992 127.949L48.363 136.008L47.299 135.634L49.8085 128.503L45.5298 126.997Z" fill="white"/>
<path d="M36.7858 131.008L37.7144 121.883L38.8356 122.458L38.486 125.218L41.6789 126.855L43.7371 124.971L44.805 125.518L37.9177 131.589L36.7858 131.008ZM38.3744 126.173L37.8657 130.348L40.98 127.508L38.3744 126.173Z" fill="white"/>
<path d="M27.7665 120.195L30.4141 116.527L30.9979 116.948L30.6064 117.983C31.6605 117.698 32.6546 117.892 33.5887 118.567C34.5747 119.278 35.1361 120.182 35.2729 121.277C35.3986 122.374 35.0776 123.455 34.3097 124.519C33.5466 125.576 32.6161 126.236 31.5184 126.5C30.4142 126.758 29.3399 126.511 28.2956 125.757C27.8156 125.41 27.4289 125.003 27.1355 124.535C26.8374 124.073 26.6711 123.558 26.6367 122.991C26.5976 122.43 26.7319 121.895 27.0394 121.387L27.9346 122.033C27.6782 122.539 27.6365 123.061 27.8096 123.6C27.9716 124.142 28.3185 124.604 28.8504 124.988C29.6028 125.531 30.3869 125.703 31.2025 125.502C32.0135 125.308 32.7373 124.77 33.3741 123.888C34.0014 123.018 34.2795 122.168 34.2083 121.337C34.1371 120.507 33.7285 119.822 32.9825 119.283C32.282 118.778 31.5979 118.605 30.9303 118.764C30.2516 118.925 29.6497 119.349 29.1246 120.036L31.343 121.637L30.8022 122.386L27.7665 120.195Z" fill="white"/>
<path d="M15.9739 109.72L16.6746 110.557C15.8619 111.394 15.8713 112.309 16.7029 113.303C17.0981 113.775 17.4986 114.061 17.9044 114.16C18.3102 114.258 18.6849 114.164 19.0285 113.876C19.1512 113.774 19.2432 113.665 19.3044 113.551C19.3657 113.438 19.3972 113.307 19.399 113.159C19.3894 113.011 19.3759 112.876 19.3582 112.755C19.3406 112.635 19.2844 112.468 19.1898 112.255C19.0952 112.042 19.0165 111.873 18.9538 111.748C18.8849 111.629 18.7826 111.438 18.6469 111.176C18.4763 110.86 18.3411 110.592 18.2413 110.373C18.1354 110.159 18.032 109.886 17.9309 109.553C17.8299 109.22 17.7848 108.93 17.7956 108.681C17.7951 108.431 17.8556 108.166 17.9769 107.887C18.0931 107.602 18.2832 107.35 18.547 107.129C19.0072 106.744 19.5015 106.549 20.03 106.545C20.5524 106.546 21.029 106.679 21.4597 106.945C21.8904 107.21 22.2931 107.567 22.6678 108.015C23.3556 108.837 23.7141 109.659 23.7434 110.479C23.7613 111.299 23.3899 112.027 22.629 112.663L21.9284 111.826C22.4713 111.34 22.7228 110.811 22.6828 110.24C22.6366 109.674 22.3749 109.105 21.8975 108.534C21.5228 108.086 21.1099 107.78 20.6589 107.615C20.2018 107.455 19.7616 107.552 19.3382 107.906C19.1419 108.071 19.0121 108.252 18.949 108.451C18.8797 108.655 18.8792 108.885 18.9472 109.141C19.0092 109.402 19.0896 109.648 19.1883 109.878C19.2871 110.108 19.4285 110.402 19.6125 110.759C19.6423 110.807 19.6619 110.843 19.6711 110.866C20.0824 111.67 20.3292 112.214 20.4117 112.5C20.6694 113.369 20.4608 114.086 19.7859 114.651C19.1601 115.174 18.5013 115.334 17.8095 115.131C17.1064 114.926 16.4803 114.496 15.9311 113.839C15.3305 113.121 15.0224 112.404 15.0067 111.687C14.9909 110.97 15.3134 110.314 15.9739 109.72Z" fill="white"/>
<path d="M8.43518 102.419L15.7166 97.9485L16.3067 98.9099L12.9012 101L15.2615 104.846L18.667 102.755L19.2571 103.717L11.9757 108.187L11.3856 107.225L14.4229 105.361L12.0626 101.515L9.02527 103.38L8.43518 102.419Z" fill="white"/>
<path d="M5.48499 95.7079L12.027 89.2787L12.5228 90.4371L10.4909 92.3381L11.9026 95.6367L14.69 95.5008L15.1622 96.604L5.98549 96.8773L5.48499 95.7079ZM9.79569 93.0012L6.73755 95.8896L10.9478 95.693L9.79569 93.0012Z" fill="white"/>
<path d="M3.43406 89.8389L2.72292 87.1473C2.35304 85.7473 2.40508 84.6289 2.87904 83.7921C3.353 82.9552 4.29382 82.3508 5.7015 81.9788C7.08598 81.613 8.21575 81.6454 9.09081 82.0762C9.95814 82.509 10.5716 83.406 10.9313 84.7673L11.6945 87.6562L3.43406 89.8389ZM4.08567 88.5L10.4667 86.8139L10.0283 85.1548C9.75449 84.1184 9.3049 83.4346 8.67954 83.1033C8.04441 82.7664 7.18929 82.74 6.11419 83.0241C4.98495 83.3225 4.22151 83.7683 3.82386 84.3616C3.42622 84.9549 3.37146 85.7968 3.6596 86.8874L4.08567 88.5Z" fill="white"/>
<path d="M0.617582 75.9686C0.486423 74.6792 0.790315 73.6351 1.52926 72.8362C2.26024 72.0381 3.27837 71.5727 4.58363 71.4399C5.89685 71.3063 7.01529 71.5503 7.93895 72.172C8.86261 72.7937 9.39043 73.7533 9.52239 75.0506C9.58959 75.7111 9.53053 76.3162 9.34519 76.8658C9.15986 77.4154 8.87329 77.8788 8.48547 78.256C8.09684 78.6252 7.64083 78.9249 7.11743 79.1551C6.59323 79.3773 6.01675 79.5203 5.388 79.5843C4.05886 79.7195 2.96308 79.4611 2.10066 78.8091C1.23743 78.149 0.743074 77.2022 0.617582 75.9686ZM1.59653 75.869C1.69287 76.8161 2.10123 77.5103 2.82159 77.9517C3.53319 78.3859 4.37846 78.5532 5.35741 78.4536C6.4239 78.3451 7.24838 77.9918 7.83085 77.3938C8.40455 76.7886 8.64566 76.0364 8.55417 75.137C8.46349 74.2456 8.07268 73.5657 7.38172 73.0972C6.69076 72.6287 5.81601 72.4483 4.75748 72.556C3.7069 72.6629 2.89476 73.019 2.32106 73.6241C1.74655 74.2213 1.50504 74.9696 1.59653 75.869Z" fill="white"/>
<path d="M0.466874 68.992L0.550357 67.831L7.79332 66.6555L0.810273 64.2163L0.89892 62.9835L8.15737 61.5926L1.16142 59.3329L1.24232 58.2078L9.60079 61.0948L9.51558 62.2798L2.24086 63.7297L9.23157 66.2296L9.14636 67.4145L0.466874 68.992Z" fill="white"/>
<path d="M6.5484 49.5233C6.28475 48.9973 6.24623 48.4534 6.43285 47.8916C6.61947 47.3298 6.97573 46.9171 7.50166 46.6534C8.02758 46.3898 8.57144 46.3513 9.13325 46.5379C9.69506 46.7246 10.1078 47.0809 10.3714 47.6068C10.6351 48.1328 10.6736 48.6766 10.487 49.2385C10.3004 49.8003 9.9441 50.213 9.41818 50.4766C8.89226 50.7403 8.34839 50.7788 7.78659 50.5921C7.22478 50.4055 6.81205 50.0492 6.5484 49.5233Z" fill="white"/>
<path d="M17.1454 31.1387L20.9811 33.5374L20.5994 34.1479L19.5412 33.8258C19.8954 34.8588 19.7671 35.8637 19.1564 36.8405C18.5117 37.8715 17.6475 38.4916 16.5637 38.7008C15.4774 38.899 14.3781 38.6502 13.2657 37.9546C12.1601 37.2632 11.4395 36.3785 11.1039 35.3006C10.7726 34.2159 10.9484 33.1275 11.6312 32.0354C11.9451 31.5335 12.3259 31.1206 12.7737 30.7967C13.2147 30.4687 13.7172 30.2687 14.2811 30.1967C14.8382 30.1205 15.3805 30.219 15.9079 30.4922L15.3226 31.4283C14.8011 31.206 14.2771 31.1991 13.7504 31.4076C13.2213 31.605 12.7828 31.9819 12.435 32.5381C11.943 33.3249 11.8241 34.1186 12.0783 34.9192C12.3258 35.7156 12.9107 36.4022 13.8332 36.9791C14.7421 37.5475 15.6087 37.7686 16.4329 37.6424C17.2572 37.5163 17.9132 37.0632 18.4009 36.2831C18.859 35.5505 18.9864 34.8565 18.783 34.2009C18.5771 33.5343 18.1142 32.9618 17.3944 32.4833L15.9438 34.8032L15.1604 34.3132L17.1454 31.1387Z" fill="white"/>
<path d="M16.1553 26.0903L16.9033 25.23L20.9689 28.7657C21.5967 29.3117 22.1736 29.5749 22.6996 29.5552C23.2256 29.5355 23.7563 29.2178 24.2917 28.602C24.8429 27.9682 25.0834 27.3928 25.0134 26.876C24.9486 26.3531 24.6083 25.824 23.9926 25.2885L19.9269 21.7528L20.675 20.8925L24.5142 24.2314C25.4559 25.0503 25.9795 25.8502 26.085 26.6311C26.1845 27.4068 25.8221 28.2685 24.998 29.2163C24.2001 30.1339 23.4084 30.6116 22.6228 30.6493C21.8365 30.6758 20.9906 30.2953 20.0851 29.5079L16.1553 26.0903Z" fill="white"/>
<path d="M32.6551 20.4667L33.2997 21.2102L29.0205 24.9209L23.4234 18.4654L24.2756 17.7264L29.2281 23.4384L32.6551 20.4667Z" fill="white"/>
<path d="M33.5011 10.8811L40.9685 16.2069L39.9139 16.8964L37.689 15.2256L34.6859 17.1891L35.3038 19.9107L34.2995 20.5674L32.4365 11.5772L33.5011 10.8811ZM36.9153 14.6562L33.5397 12.1463L34.4646 16.2585L36.9153 14.6562Z" fill="white"/>
<path d="M47.3594 8.40133L49.235 12.5182L48.5798 12.8167L47.875 11.9643C47.6005 13.0212 46.9391 13.7885 45.8907 14.2662C44.7842 14.7704 43.7213 14.8107 42.702 14.3873C41.6866 13.9532 40.907 13.1392 40.3631 11.9452C39.8224 10.7586 39.7096 9.6232 40.0244 8.53906C40.3466 7.4516 41.0937 6.64085 42.2657 6.1068C42.8045 5.86134 43.3499 5.7271 43.902 5.70409C44.4509 5.6738 44.9803 5.78422 45.4903 6.03536C45.997 6.27921 46.3949 6.66055 46.684 7.17937L45.6794 7.63713C45.3672 7.16401 44.9339 6.86911 44.3796 6.75242C43.8294 6.62513 43.2557 6.69749 42.6588 6.96949C41.8143 7.35427 41.2772 7.95064 41.0475 8.75861C40.8145 9.5593 40.9235 10.4547 41.3746 11.4448C41.8191 12.4203 42.4198 13.0829 43.1768 13.4324C43.9339 13.782 44.731 13.766 45.5682 13.3846C46.3544 13.0263 46.8436 12.5177 47.0357 11.8588C47.2317 11.1892 47.1616 10.4563 46.8252 9.66013L44.3355 10.7946L43.9524 9.95372L47.3594 8.40133Z" fill="white"/>
<path d="M62.2999 3.34352L61.2252 3.53751C60.9011 2.41727 60.1013 1.97227 58.826 2.2025C58.2198 2.31193 57.7734 2.51852 57.4867 2.82226C57.2001 3.12601 57.0966 3.49832 57.1762 3.93919C57.2046 4.09665 57.2531 4.23016 57.3217 4.33972C57.3902 4.44929 57.4881 4.54136 57.6154 4.61594C57.7491 4.68122 57.8728 4.73612 57.9865 4.78062C58.1003 4.82513 58.273 4.85898 58.5048 4.88217C58.7366 4.90536 58.9223 4.92062 59.0618 4.92795C59.1999 4.92741 59.4164 4.93305 59.7111 4.94487C60.0703 4.95319 60.3698 4.96824 60.6094 4.99001C60.8477 5.0039 61.1364 5.04934 61.4754 5.12633C61.8145 5.20332 62.0895 5.30814 62.3004 5.44078C62.5178 5.56413 62.7175 5.74756 62.8997 5.99108C63.0897 6.23317 63.2153 6.52348 63.2764 6.86201C63.3829 7.45247 63.3071 7.9783 63.0489 8.4395C62.7893 8.89283 62.4376 9.24086 61.9936 9.48359C61.5497 9.72631 61.0403 9.89955 60.4656 10.0033C59.4107 10.1937 58.5196 10.0985 57.7924 9.71764C57.0716 9.32748 56.6231 8.64428 56.4469 7.66806L57.5216 7.47407C57.6745 8.18623 58.0091 8.66642 58.5254 8.91465C59.0403 9.15501 59.6638 9.2091 60.396 9.07693C60.9707 8.97319 61.4414 8.76627 61.8082 8.45619C62.1735 8.13823 62.3072 7.70764 62.2091 7.16442C62.1636 6.91249 62.0702 6.70987 61.9287 6.55657C61.7858 6.39539 61.5863 6.28101 61.3302 6.21342C61.0727 6.13797 60.8195 6.08613 60.5705 6.05791C60.3215 6.02969 59.9964 6.0071 59.595 5.99013C59.5384 5.99221 59.4976 5.99144 59.4726 5.98783C58.5711 5.94734 57.9758 5.89221 57.6868 5.82244C56.8041 5.61596 56.2846 5.07972 56.1283 4.21372C55.9834 3.41069 56.1706 2.75907 56.69 2.25884C57.2159 1.74932 57.9 1.41852 58.7424 1.26646C59.6635 1.10018 60.4394 1.18774 61.07 1.52913C61.7007 1.87053 62.1107 2.47532 62.2999 3.34352Z" fill="white"/>
<path d="M72.3771 0.407951L72.6545 8.94745L71.5271 8.98407L71.3974 4.99017L66.8877 5.13665L67.0175 9.13054L65.8901 9.16716L65.6127 0.627666L66.7401 0.591047L66.8558 4.15317L71.3654 4.00669L71.2497 0.44457L72.3771 0.407951Z" fill="white"/>
<path d="M79.6669 1.16826L82.0125 10.0354L80.7607 9.89256L80.1154 7.18593L76.5506 6.77906L75.2882 9.26796L74.0959 9.13188L78.4032 1.02401L79.6669 1.16826ZM79.8837 6.25364L78.8887 2.16645L76.9746 5.9216L79.8837 6.25364Z" fill="white"/>
<path d="M85.7805 2.2927L88.4711 3.0078C89.8705 3.37974 90.8164 3.97879 91.3087 4.80497C91.8011 5.63115 91.8603 6.74782 91.4863 8.15498C91.1185 9.53895 90.5309 10.5044 89.7233 11.0513C88.9178 11.5905 87.8347 11.6793 86.4739 11.3176L83.5862 10.5501L85.7805 2.2927ZM86.621 3.52183L84.926 9.90045L86.5844 10.3412C87.6204 10.6166 88.4372 10.5646 89.0346 10.1854C89.6418 9.80042 90.0883 9.0706 90.3739 7.9959C90.6738 6.86708 90.6646 5.98304 90.3461 5.34378C90.0276 4.70452 89.3232 4.24002 88.2331 3.95028L86.621 3.52183Z" fill="white"/>
<path d="M99.2238 6.71523C100.409 7.2398 101.166 8.02089 101.494 9.0585C101.825 10.0888 101.725 11.2038 101.194 12.4036C100.66 13.6106 99.8941 14.4615 98.8966 14.956C97.8991 15.4506 96.8042 15.434 95.6118 14.9062C95.0046 14.6374 94.5082 14.2864 94.1225 13.8533C93.7368 13.4201 93.4761 12.9416 93.3405 12.4179C93.2121 11.8974 93.1776 11.3528 93.2368 10.7841C93.3034 10.2187 93.4645 9.64699 93.7203 9.06906C94.261 7.84737 95.0281 7.02335 96.0217 6.59702C97.0225 6.17392 98.0899 6.21332 99.2238 6.71523ZM98.8256 7.61504C97.955 7.22971 97.1497 7.24068 96.4095 7.64794C95.6799 8.05113 95.116 8.70264 94.7178 9.60245C94.2839 10.5827 94.1826 11.474 94.4137 12.2762C94.6553 13.0743 95.1895 13.6563 96.0161 14.0222C96.8354 14.3849 97.6197 14.3821 98.3688 14.0138C99.118 13.6455 99.7079 12.9748 100.138 12.0019C100.566 11.0362 100.659 10.1543 100.417 9.35622C100.183 8.56134 99.6522 7.98094 98.8256 7.61504Z" fill="white"/>
<path d="M105.361 10.0378L106.328 10.6853L103.762 17.5601L109.339 12.7013L110.367 13.3888L107.981 20.3838L113.408 15.4248L114.345 16.0522L107.698 21.8843L106.711 21.2235L109.054 14.1851L103.42 19.0206L102.433 18.3598L105.361 10.0378Z" fill="white"/>
<path d="M119.261 24.9631C119.848 24.9945 120.34 25.2304 120.735 25.6708C121.131 26.1111 121.313 26.6251 121.282 27.2126C121.25 27.8001 121.014 28.2917 120.574 28.6873C120.134 29.083 119.62 29.2652 119.032 29.2338C118.445 29.2024 117.953 28.9665 117.558 28.5261C117.162 28.0858 116.98 27.5718 117.011 26.9843C117.043 26.3968 117.279 25.9052 117.719 25.5096C118.159 25.1139 118.673 24.9317 119.261 24.9631Z" fill="white"/>
<path d="M129.985 43.2741L126.001 45.4189L125.66 44.7849L126.464 44.025C125.391 43.8212 124.582 43.2122 124.036 42.1978C123.459 41.1271 123.348 40.0692 123.703 39.024C124.069 37.982 124.83 37.1501 125.985 36.5281C127.133 35.9099 128.258 35.7219 129.361 35.9641C130.467 36.2134 131.326 36.9051 131.936 38.0392C132.217 38.5605 132.387 39.0958 132.447 39.6452C132.513 40.1909 132.438 40.7265 132.221 41.2521C132.012 41.7738 131.658 42.1962 131.159 42.5191L130.636 41.547C131.087 41.2041 131.353 40.7522 131.432 40.1914C131.523 39.6338 131.413 39.0662 131.102 38.4886C130.662 37.6715 130.031 37.1752 129.21 36.9996C128.395 36.8202 127.509 36.9884 126.551 37.5042C125.607 38.0124 124.986 38.6558 124.688 39.4345C124.389 40.2131 124.458 41.0074 124.894 41.8175C125.303 42.5782 125.843 43.0326 126.514 43.1805C127.195 43.3317 127.921 43.2131 128.693 42.8246L127.396 40.4156L128.21 39.9775L129.985 43.2741Z" fill="white"/>
<path d="M134.859 44.9145L135.236 45.9904L130.151 47.7719C129.366 48.047 128.852 48.4179 128.608 48.8846C128.365 49.3513 128.378 49.9697 128.648 50.7399C128.926 51.5326 129.306 52.0265 129.79 52.2216C130.276 52.4242 130.904 52.3906 131.675 52.1208L136.76 50.3393L137.136 51.4152L132.335 53.0975C131.157 53.5101 130.203 53.5689 129.472 53.2739C128.749 52.9762 128.18 52.2347 127.765 51.0493C127.363 49.9017 127.34 48.9773 127.696 48.2761C128.062 47.5798 128.812 47.0332 129.944 46.6365L134.859 44.9145Z" fill="white"/>
<path d="M131.574 62.0338L130.609 62.2257L129.505 56.6704L137.884 55.0042L138.104 56.1106L130.69 57.5849L131.574 62.0338Z" fill="white"/>
<path d="M139.482 67.5158L131.157 71.3662L131.081 70.1085L133.634 69.0029L133.415 65.4215L130.745 64.6107L130.672 63.413L139.405 66.2461L139.482 67.5158ZM134.512 68.6126L138.364 66.9228L134.334 65.6901L134.512 68.6126Z" fill="white"/>
<path d="M134.774 80.7849L130.269 80.3757L130.334 79.6587L131.424 79.4684C130.641 78.7065 130.302 77.752 130.406 76.6047C130.516 75.3937 131.008 74.4502 131.88 73.7744C132.76 73.1072 133.854 72.833 135.16 72.9517C136.459 73.0696 137.501 73.5338 138.287 74.3442C139.072 75.1625 139.407 76.2131 139.29 77.4958C139.237 78.0854 139.083 78.6257 138.83 79.1168C138.584 79.6086 138.226 80.0139 137.755 80.3326C137.293 80.6521 136.764 80.8089 136.17 80.8032L136.27 79.7037C136.836 79.6667 137.307 79.4364 137.682 79.0126C138.066 78.5976 138.287 78.0634 138.346 77.4101C138.43 76.4859 138.178 75.724 137.59 75.1243C137.009 74.5254 136.178 74.1767 135.094 74.0783C134.026 73.9813 133.153 74.1752 132.475 74.6598C131.796 75.1444 131.415 75.8448 131.332 76.761C131.254 77.6215 131.454 78.2983 131.931 78.7915C132.415 79.2934 133.087 79.5954 133.945 79.6974L134.193 76.9726L135.113 77.0562L134.774 80.7849Z" fill="white"/>
<path d="M131.769 96.2697L132.133 95.24C133.267 95.5132 134.049 95.0387 134.481 93.8167C134.686 93.2358 134.727 92.7457 134.605 92.3463C134.484 91.9469 134.211 91.6726 133.789 91.5234C133.638 91.4701 133.498 91.4461 133.369 91.4514C133.24 91.4567 133.111 91.4961 132.983 91.5698C132.861 91.6536 132.752 91.7339 132.657 91.8107C132.562 91.8874 132.447 92.0208 132.312 92.2107C132.177 92.4006 132.072 92.5543 131.996 92.6719C131.928 92.7921 131.816 92.9774 131.66 93.2276C131.475 93.5356 131.313 93.7883 131.176 93.9857C131.046 94.1858 130.863 94.4141 130.629 94.6705C130.394 94.927 130.167 95.114 129.947 95.2315C129.732 95.3593 129.474 95.442 129.172 95.4796C128.868 95.5248 128.553 95.4902 128.229 95.3756C127.663 95.1758 127.244 94.8495 126.971 94.3968C126.706 93.9468 126.578 93.4688 126.586 92.9629C126.595 92.457 126.697 91.9288 126.892 91.3781C127.249 90.3673 127.773 89.6403 128.464 89.1971C129.159 88.7641 129.975 88.7128 130.91 89.0432L130.547 90.0729C129.852 89.8531 129.27 89.906 128.798 90.2316C128.334 90.5599 127.979 91.0748 127.731 91.7763C127.536 92.327 127.483 92.8384 127.571 93.3106C127.666 93.7855 127.974 94.1148 128.495 94.2986C128.736 94.3839 128.958 94.403 129.162 94.356C129.372 94.3117 129.571 94.195 129.756 94.006C129.949 93.8197 130.12 93.6254 130.267 93.423C130.415 93.2207 130.596 92.9494 130.809 92.6091C130.836 92.5589 130.856 92.5239 130.872 92.5039C131.354 91.7407 131.696 91.2509 131.9 91.0344C132.516 90.3697 133.24 90.184 134.069 90.477C134.839 90.7488 135.312 91.2341 135.49 91.9331C135.672 92.6423 135.62 93.4004 135.335 94.2076C135.024 95.0902 134.563 95.7209 133.954 96.0997C133.346 96.4786 132.617 96.5352 131.769 96.2697Z" fill="white"/>
<path d="M129.329 106.478L121.773 102.49L122.3 101.493L125.834 103.358L127.94 99.3676L124.406 97.5024L124.932 96.5048L132.488 100.493L131.962 101.49L128.81 99.8269L126.704 103.817L129.856 105.481L129.329 106.478Z" fill="white"/>
<path d="M125.059 112.436L116.194 110.083L116.938 109.066L119.609 109.846L121.728 106.95L120.191 104.621L120.899 103.652L125.81 111.41L125.059 112.436ZM120.534 110.106L124.577 111.266L122.263 107.743L120.534 110.106Z" fill="white"/>
<path d="M121.055 117.192L119.101 119.175C118.085 120.207 117.096 120.732 116.135 120.75C115.173 120.769 114.174 120.267 113.137 119.246C112.117 118.241 111.569 117.252 111.494 116.28C111.424 115.313 111.883 114.328 112.871 113.325L114.968 111.196L121.055 117.192ZM119.571 117.313L114.869 112.682L113.665 113.904C112.913 114.668 112.553 115.403 112.587 116.11C112.621 116.828 113.034 117.578 113.826 118.358C114.658 119.178 115.43 119.607 116.143 119.647C116.857 119.687 117.609 119.305 118.4 118.502L119.571 117.313Z" fill="white"/>
<path d="M110.555 126.682C109.512 127.452 108.459 127.722 107.395 127.494C106.336 127.271 105.417 126.632 104.638 125.577C103.854 124.515 103.494 123.428 103.558 122.317C103.622 121.205 104.179 120.262 105.228 119.487C105.762 119.093 106.313 118.835 106.88 118.715C107.448 118.594 107.992 118.605 108.514 118.746C109.03 118.892 109.52 119.132 109.985 119.465C110.443 119.803 110.86 120.226 111.235 120.735C112.029 121.809 112.365 122.884 112.243 123.958C112.115 125.037 111.553 125.945 110.555 126.682ZM109.971 125.89C110.736 125.325 111.126 124.62 111.138 123.775C111.149 122.941 110.863 122.129 110.278 121.337C109.641 120.475 108.917 119.945 108.106 119.749C107.293 119.564 106.523 119.739 105.796 120.276C105.075 120.809 104.689 121.491 104.638 122.325C104.587 123.158 104.877 124.003 105.509 124.859C106.137 125.708 106.857 126.225 107.67 126.411C108.476 126.601 109.243 126.427 109.971 125.89Z" fill="white"/>
<path d="M104.63 130.368L103.589 130.887L98.8871 125.254L100.346 132.506L99.2404 133.057L94.3453 127.521L95.9655 134.692L94.9562 135.195L93.1815 126.532L94.2445 126.002L99.1987 131.523L97.7878 124.233L98.8508 123.703L104.63 130.368Z" fill="white"/>
<path d="M84.7802 135.054C84.462 135.549 84.0137 135.859 83.4351 135.985C82.8566 136.111 82.32 136.014 81.8252 135.696C81.3303 135.378 81.0201 134.93 80.8944 134.351C80.7687 133.773 80.865 133.236 81.1832 132.741C81.5014 132.246 81.9498 131.936 82.5283 131.81C83.1068 131.685 83.6434 131.781 84.1383 132.099C84.6331 132.417 84.9433 132.866 85.069 133.444C85.1947 134.023 85.0984 134.559 84.7802 135.054Z" fill="white"/>
</svg>
