<svg width="35" height="35" viewBox="0 0 35 35" fill="none" xmlns="http://www.w3.org/2000/svg">
<g clip-path="url(#clip0_424_11)">
<path d="M34.9995 15.449C34.9995 14.8826 34.5404 14.4236 33.9741 14.4236C33.4077 14.4236 32.9487 14.8826 32.9487 15.449V16.4743H30.7612V2.05078H32.0616C32.6277 2.05078 33.087 1.59176 33.087 1.02539C33.087 0.459023 32.6277 0 32.0616 0H2.93758C2.37148 0 1.91219 0.459023 1.91219 1.02539C1.91219 1.59176 2.37148 2.05078 2.93758 2.05078H4.10156V15.4471V15.449V16.4743H2.05078V15.449C2.05078 14.8826 1.59176 14.4236 1.02539 14.4236C0.459023 14.4236 0 14.8826 0 15.449V33.9738C0 34.5402 0.459023 34.9992 1.02539 34.9992C1.59176 34.9992 2.05078 34.5402 2.05078 33.9738V18.5251H32.9487V18.527V33.9746C32.9487 34.541 33.408 35 33.9741 35C34.5404 35 34.9995 34.541 34.9995 33.9746V15.449ZM28.7107 15.449V16.4743H26.6599V15.449C26.6599 14.8826 26.2009 14.4236 25.6345 14.4236C25.0681 14.4236 24.6091 14.8826 24.6091 15.449V16.4743H22.5583V15.449C22.5583 14.8826 22.0993 14.4236 21.5329 14.4236C20.9666 14.4236 20.5075 14.8826 20.5075 15.449V16.4743H18.4568V15.449C18.4568 14.8826 17.9977 14.4236 17.4314 14.4236C16.8653 14.4236 16.4062 14.8826 16.4062 15.449V16.4743H14.3552V15.449C14.3552 14.8826 13.8962 14.4236 13.3298 14.4236C12.7637 14.4236 12.3047 14.8826 12.3047 15.449V16.4743H10.2539V15.449C10.2539 14.8826 9.79488 14.4236 9.22852 14.4236C8.66215 14.4236 8.20312 14.8826 8.20312 15.449V16.4743H6.15234V2.05078H28.7107V15.449Z" fill="white"/>
<path d="M10.2534 6.15234H12.3042C12.8706 6.15234 13.3296 5.69332 13.3296 5.12695C13.3296 4.56059 12.8706 4.10156 12.3042 4.10156H10.2534C9.68732 4.10156 9.22803 4.56059 9.22803 5.12695C9.22803 5.69332 9.68732 6.15234 10.2534 6.15234Z" fill="white"/>
<path d="M16.4058 6.15234H18.4565C19.0229 6.15234 19.4819 5.69332 19.4819 5.12695C19.4819 4.56059 19.0229 4.10156 18.4565 4.10156H16.4058C15.8394 4.10156 15.3804 4.56059 15.3804 5.12695C15.3804 5.69332 15.8394 6.15234 16.4058 6.15234Z" fill="white"/>
<path d="M22.5581 6.15234H24.6089C25.175 6.15234 25.6343 5.69332 25.6343 5.12695C25.6343 4.56059 25.175 4.10156 24.6089 4.10156H22.5581C21.9917 4.10156 21.5327 4.56059 21.5327 5.12695C21.5327 5.69332 21.9917 6.15234 22.5581 6.15234Z" fill="white"/>
<path d="M10.2534 10.2539H12.3042C12.8706 10.2539 13.3296 9.79462 13.3296 9.22852C13.3296 8.66215 12.8706 8.20312 12.3042 8.20312H10.2534C9.68732 8.20312 9.22803 8.66215 9.22803 9.22852C9.22803 9.79462 9.68732 10.2539 10.2534 10.2539Z" fill="white"/>
<path d="M16.4058 10.2539H18.4565C19.0229 10.2539 19.4819 9.79462 19.4819 9.22852C19.4819 8.66215 19.0229 8.20312 18.4565 8.20312H16.4058C15.8394 8.20312 15.3804 8.66215 15.3804 9.22852C15.3804 9.79462 15.8394 10.2539 16.4058 10.2539Z" fill="white"/>
<path d="M22.5581 10.2539H24.6089C25.175 10.2539 25.6343 9.79462 25.6343 9.22852C25.6343 8.66215 25.175 8.20312 24.6089 8.20312H22.5581C21.9917 8.20312 21.5327 8.66215 21.5327 9.22852C21.5327 9.79462 21.9917 10.2539 22.5581 10.2539Z" fill="white"/>
<path d="M23.0368 23.1736H11.9629C11.3965 23.1736 10.9375 23.6326 10.9375 24.199V33.9583C10.9375 34.5247 11.3965 34.9837 11.9629 34.9837C12.529 34.9837 12.988 34.5247 12.988 33.9583V25.2243H16.4743V33.9741C16.4743 34.5404 16.9336 34.9995 17.4997 34.9995C18.0661 34.9995 18.5251 34.5404 18.5251 33.9741V25.2243H22.0115V33.9738C22.0115 34.5402 22.4705 34.9992 23.0368 34.9992C23.6032 34.9992 24.0622 34.5402 24.0622 33.9738V24.199C24.0622 23.6326 23.6032 23.1736 23.0368 23.1736Z" fill="white"/>
</g>
<defs>
<clipPath id="clip0_424_11">
<rect width="35" height="35" fill="white"/>
</clipPath>
</defs>
</svg>
