<svg width="105" height="28" viewBox="0 0 105 28" fill="none" xmlns="http://www.w3.org/2000/svg">
<path d="M4.41484 28C3.42818 28 2.57484 27.6267 1.85484 26.88C1.16151 26.1333 0.814844 25.24 0.814844 24.2V4C0.814844 2.93333 1.16151 2.04 1.85484 1.32C2.57484 0.573331 3.42818 0.199998 4.41484 0.199998H9.41484C10.4015 0.199998 11.2415 0.573331 11.9348 1.32C12.6548 2.04 13.0148 2.93333 13.0148 4V7.08L8.61484 9.4V4.4H5.21484V23.8H8.61484V16.88L6.81484 17.8V12.88L13.0148 9.68V28C13.0148 28 10.1482 28 4.41484 28ZM36.4055 0.199998V24.2C36.4055 25.2667 36.0455 26.1733 35.3255 26.92C34.6321 27.64 33.7921 28 32.8055 28H27.8055C26.8188 28 25.9655 27.6267 25.2455 26.88C24.5521 26.1333 24.2055 25.24 24.2055 24.2V0.199998H28.6055V23.8H32.0055V0.199998H36.4055ZM47.5961 28V0.199998H51.9961V23.8H58.3961V28H47.5961ZM68.6039 28V4C68.6039 2.93333 68.9506 2.04 69.6439 1.32C70.3639 0.573331 71.2172 0.199998 72.2039 0.199998H77.2039C78.1906 0.199998 79.0306 0.573331 79.7239 1.32C80.4439 2.04 80.8039 2.93333 80.8039 4V28H76.4039V16.2L73.0039 18V28H68.6039ZM73.0039 13.08L76.4039 11.28V4.4H73.0039V13.08ZM95.5945 28C94.6079 28 93.7545 27.6267 93.0345 26.88C92.3412 26.1333 91.9945 25.24 91.9945 24.2V4C91.9945 2.93333 92.3412 2.04 93.0345 1.32C93.7545 0.573331 94.6079 0.199998 95.5945 0.199998H100.595C101.581 0.199998 102.421 0.573331 103.115 1.32C103.835 2.04 104.195 2.93333 104.195 4V7.08L99.7945 9.4V4.4H96.3945V23.8H99.7945V16.88L97.9945 17.8V12.88L104.195 9.68V28C104.195 28 101.328 28 95.5945 28Z" fill="white"/>
</svg>
