<svg width="24" height="24" viewBox="0 0 24 24" fill="none" xmlns="http://www.w3.org/2000/svg">
<g clip-path="url(#clip0_131_14)">
<path d="M23.8269 4.71536C23.6089 4.46537 23.2458 4.40167 22.9557 4.56264C22.9307 4.57651 22.9055 4.59016 22.8802 4.60347C23.1303 4.19443 23.3249 3.74976 23.4565 3.2794C23.5328 3.00644 23.4378 2.71431 23.2154 2.53847C22.9931 2.36269 22.6869 2.33761 22.4389 2.47477C21.6781 2.89567 20.8719 3.22816 20.0372 3.46569C19.0531 2.57166 17.7577 2.0661 16.4209 2.0661C13.4583 2.0661 11.0481 4.47634 11.0481 7.43888C11.0481 7.54285 11.0511 7.64677 11.057 7.75042C7.73326 7.52044 4.7179 5.88774 2.6897 3.19207C2.56749 3.02514 2.3761 2.91859 2.16534 2.9057C1.9124 2.89019 1.67052 3.01211 1.53256 3.22479C0.980309 4.07592 0.688363 5.06422 0.688363 6.08284C0.688363 7.0184 0.938167 7.91945 1.38973 8.70407C1.30329 8.70449 1.21614 8.72085 1.1328 8.75404C0.87179 8.85806 0.697785 9.10748 0.690238 9.38832C0.688972 9.43543 0.688316 9.48259 0.688316 9.52998C0.688316 11.1883 1.45887 12.6897 2.68745 13.6597C2.61057 13.814 2.59192 13.9936 2.63996 14.1642C2.94377 15.2419 3.60187 16.2137 4.49294 16.9006C4.85426 17.1792 5.24366 17.4066 5.65378 17.5803C4.2204 18.2025 2.66842 18.5262 1.08325 18.5262C0.962683 18.5262 0.842023 18.5244 0.724645 18.5208C0.407152 18.5122 0.122941 18.7153 0.0305007 19.019C-0.0618925 19.3227 0.060689 19.6506 0.329618 19.8193C2.53548 21.2028 5.08419 21.9341 7.70022 21.9341C11.4102 21.9341 14.8983 20.4893 17.5216 17.8659C20.1451 15.2425 21.5899 11.7544 21.5899 8.04438C21.5899 8.0102 21.5898 7.97598 21.5895 7.94167C22.4418 7.25976 23.2042 6.47313 23.8594 5.59926C24.0585 5.33385 24.0449 4.9654 23.8269 4.71536ZM20.4556 7.04216C20.2664 7.18509 20.1664 7.40948 20.1771 7.63655C20.1815 7.77221 20.1837 7.90937 20.1837 8.04442C20.1837 14.9278 14.5836 20.5278 7.70026 20.5278C6.19436 20.5278 4.71335 20.2583 3.32258 19.738C5.00619 19.4427 6.61606 18.8146 8.06449 17.8797C8.32606 17.7109 8.44546 17.3902 8.35798 17.0914C8.27056 16.7926 7.99708 16.5869 7.68578 16.5858C6.35013 16.5808 5.13158 15.8767 4.441 14.7855C4.71443 14.7791 4.98805 14.7516 5.25613 14.7033C5.59097 14.6431 5.83463 14.3517 5.83468 14.0114C5.83473 13.6712 5.5912 13.3797 5.25637 13.3194C3.76659 13.0506 2.60903 11.9466 2.22848 10.5405C2.71061 10.6853 3.21387 10.7608 3.7229 10.7627H3.72562C4.04499 10.7627 4.32446 10.5473 4.40565 10.2382C4.48708 9.92819 4.34856 9.60236 4.0688 9.44588C2.85105 8.76477 2.09461 7.4761 2.09461 6.08279C2.09461 5.67876 2.15719 5.28139 2.27874 4.90305C3.33631 6.07895 4.61074 7.06241 6.01436 7.77971C7.83747 8.71133 9.80684 9.18403 11.8678 9.18474H11.8681C12.082 9.18474 12.2843 9.08733 12.4178 8.92007C12.5513 8.75277 12.6013 8.53377 12.5536 8.32512C12.4877 8.03641 12.4543 7.73823 12.4543 7.43878C12.4543 5.25163 14.2337 3.4723 16.4209 3.4723C17.53 3.4723 18.5586 3.91851 19.3172 4.72872C19.4913 4.91463 19.7524 4.99193 19.9997 4.93067C20.369 4.83907 20.734 4.73107 21.0934 4.60712C20.8897 4.80691 20.6627 4.98523 20.4152 5.13828C20.1551 5.29916 20.0288 5.60967 20.1028 5.9064C20.1768 6.20317 20.434 6.41805 20.7392 6.43797C20.8938 6.44805 21.0355 6.45152 21.1781 6.44918C20.9456 6.65623 20.7046 6.85405 20.4556 7.04216Z" fill="white"/>
</g>
<defs>
<clipPath id="clip0_131_14">
<rect width="24" height="24" fill="white"/>
</clipPath>
</defs>
</svg>
